<?xml version="1.0" encoding="utf-8"?>
<!-- Generator: Adobe Illustrator 22.1.0, SVG Export Plug-In . SVG Version: 6.00 Build 0)  -->
<svg version="1.1" id="apple" xmlns="http://www.w3.org/2000/svg" xmlns:xlink="http://www.w3.org/1999/xlink" x="0px" y="0px"
	 viewBox="0 0 949.8 1059.1" style="enable-background:new 0 0 949.8 1059.1;" xml:space="preserve">
<style type="text/css">
	.st0{stroke:#000000;stroke-miterlimit:10;}
	.st1{stroke:#000000;stroke-miterlimit:10;}

	#white_heart{
fill: black;
}
#apple:hover #white_heart{
fill: #680909;
animation: beat .25s infinite alternate;
transform-origin: center;
}

@keyframes beat{
	to{transform: scale(1.2);}
}

</style>
<title>Artboard 1</title>
<g id="apple">
	<path class="st0" d="M458.7,303.2c10.4-88.6,57.9-168.7,130.6-220.5l77.9,11.4c-27.5,12.9-82.2,43.1-125.8,104.7
		c-24.3,34.4-41.5,73.3-50.6,114.4L458.7,303.2z"/>
	<path class="st0" d="M578.2,252.9c-67.7,18.3-64.7,39-113.9,40.8c-64.7,2.4-72.5-38.9-153.9-52.9c-15.3-2.6-78.9-13.6-138.6,11.4
		C70.4,294.8,38.2,417,30.4,446.5c-43.3,164.3,46.2,309.4,80,364.3c37.5,60.8,74.6,94.4,148.6,161.4c63.1,57.1,90.5,69.6,118.6,67.4
		c37.8-3,50.7-30.7,92.1-27.6c37.4,2.8,60.4,26.5,93.3,29.5c41.7,3.8,80-35.8,104.2-59.1c123.4-118.4,110-87,165.8-158
		c79.6-101.3,133.9-266.5,74.1-413.8C894.6,380,866.3,291,777.6,253.7C698.1,220.2,600,247,578.2,252.9z"/>
	<path class="st0" d="M522.1,147.6c-2-33.5-13.2-54.4-20.8-65.6c0,0-51.9-76-185.6-62.9c-4.2,0.4-25.3,2.7-54.5,4.2
		c-12.6,0.6-22.9,0.9-29.4,1c26.6-2.1,53.2,3.8,76.5,16.8c29.6,16.6,20.2,30.8,52.4,53.5c5.2,3.7,52.1,35.9,98.6,32.5
		c5.6-0.4,16.6-1.8,30.4,2.1C501.8,132.8,512.9,139.1,522.1,147.6z"/>
</g>
<g id="white_heart">
	<path class="st1" d="M474.7,830.7c-0.7,1.8-2.8,2.6-4.5,1.9c-0.8-0.4-1.5-1-1.9-1.9c-5.9-12.5-29.6-43.6-44.7-58.4
		c-51.4-50.3-57.9-45-105.5-79.7c-28.7-21-77-74.4-65.7-154.3c6.4-45.4,52.9-91.9,105.7-92.9c58.3-1,92.7,30.1,105.7,58.6
		c9.3-23.2,39.8-56,84.5-58.6c66-3.9,124,48.9,128.3,94.3c8,84.7-26.6,131.4-75.7,166.8c-28.3,20.4-57.8,35.4-92.8,70.7
		C494.9,790.7,479.4,819,474.7,830.7z"/>
</g>
</svg>
