<?xml version="1.0" encoding="utf-8"?>
<!-- Generator: Adobe Illustrator 22.1.0, SVG Export Plug-In . SVG Version: 6.00 Build 0)  -->
<svg version="1.1" id="birds" xmlns="http://www.w3.org/2000/svg" xmlns:xlink="http://www.w3.org/1999/xlink" x="0px" y="0px"
	 viewBox="0 0 1841.2 1103.1" style="enable-background:new 0 0 1841.2 1103.1;" xml:space="preserve">
<style type="text/css">
	.st0{stroke:#000000;stroke-miterlimit:10;}
	.st1{fill:#FFFFFF;stroke:#000000;stroke-miterlimit:10;}

	#bird1,#bird2,#bird3,#bird3,#bird4,#bird5,#bird6,#bird7,#bird8{
    opacity:0;
    transition: opacity 0.5s ease-in-out;

	}
	#birds:hover #bird1{
	transition-delay: 0.1s;
	opacity:1;
	}
	#birds:hover #bird2{
	transition-delay: 0.5s;
	opacity:1;
	}
	#birds:hover #bird3{
	transition-delay: 1s;
	opacity:1;
	}
	#birds:hover #bird4{
	transition-delay: 1.5s;
	opacity:1;
	}
	#birds:hover #bird5{
	transition-delay: 2s;
	opacity:1;
	}
	#birds:hover #bird6{
	transition-delay: 2.5s;
	opacity:1;
	}
	#birds:hover #bird7{
	transition-delay: 3s;
	opacity:1;
	}
	#birds:hover #bird8{
	transition-delay: 3.5s;
	opacity:1;
	}
</style>
<title>Artboard 1</title>
<g id="background">
	<path class="st0" d="M66.2,0h1708.9c36.5,0,66.2,29.6,66.2,66.2v970.7c0,36.5-29.6,66.2-66.2,66.2H66.2
		c-36.5,0-66.2-29.6-66.2-66.2V66.2C0,29.6,29.6,0,66.2,0z"/>
</g>
<g id="birds">
	<path id="bird1" class="st1" d="M60,944c22.6-32.9,45.1-65.7,67.7-98.6l272.7,57.7c44.1,9.3,89.6,9.6,133.8,0.7l105.8-21.2
		c-21.8,3-135.9,16.4-228.8-60.7S284.4,608,328.7,480.3c97.5,137.7,242.9,234.1,407.8,270c21.4-18.4,58.7-55.6,82.1-114.6
		c12.1-30.6,19-63.1,20.3-96c14,4.5,42.4,16,63.4,44.1c29.2,39.1,32.3,94.3,9.3,143.6c7.3-8.6,25.7-27.8,55.8-35.2
		c7.9-1.9,46-11.3,75.2,11.3c6.4,5,11.9,11,16.2,17.8l39.7,13.2l-40,14l34.3,6.7c-15.2,2.2-37.6,7.7-58.1,23.4
		c-26.3,20.2-36.5,47.2-39.5,54.7c-29.6,72.5-143.8,153.7-174,172c-145.9,88.9-380.7-38.1-404.6-51.4L60,944z"/>
	<path id="bird2" class="st1" d="M1245.3,505.7l38-55.3l149,31.5c27.3,5.8,55.6,5.9,83,0.4l55.4-11.1c-12.2,1.7-76.2,9.2-128.3-34.1
		s-71.2-120-46.4-191.6c54.7,77.3,136.3,131.3,228.8,151.5c20.3-17.4,36.1-39.5,46-64.3c6.8-17.2,10.7-35.4,11.4-53.9
		c7.8,2.5,23.8,9,35.6,24.8c16.4,21.9,18.1,52.9,5.2,80.6c4.1-4.8,14.4-15.6,31.3-19.8c4.5-1.1,25.8-6.3,42.2,6.3
		c3.6,2.8,6.7,6.2,9.1,10l22.3,7.4l-22.4,7.9l19.2,3.7c-8.5,1.2-21.1,4.3-32.6,13.2c-14.7,11.3-20.4,26.5-22.2,30.7
		c-16.6,40.7-80.7,86.2-97.6,96.5c-81.9,49.9-213.6-21.4-227-28.8L1245.3,505.7z"/>
	<path id="bird3" class="st1" d="M797.5,294.2l31-45.1l129.8,27.4c16.8,3.6,34.2,3.7,51.1,0.3l53.5-10.7
		c-10,1.4-62.1,7.5-104.6-27.8s-58.1-97.8-37.8-156.2c22.7,32,51.3,59.5,84.2,80.8c31.3,20.3,65.9,34.7,102.3,42.6
		c16.6-14.2,29.4-32.2,37.5-52.4c5.6-14,8.7-28.9,9.3-43.9c6.4,2.1,19.4,7.3,29,20.2c13.4,17.9,14.8,43.1,4.3,65.7
		c6.6-7.9,15.5-13.5,25.5-16.1c3.6-0.9,21-5.1,34.4,5.1c2.9,2.3,5.4,5,7.4,8.1l18.2,6l-18.3,6.4l15.7,3c-6.9,1-17.2,3.5-26.6,10.7
		c-12,9.2-16.7,21.6-18.1,25c-13.5,33.2-65.8,70.3-79.6,78.7c-66.7,40.7-174.1-17.4-185.1-23.5L797.5,294.2z"/>
	<path id="bird4" class="st1" d="M176.1,151.5c3.4-4.9,6.8-9.8,10.1-14.7l40.8,8.6c6.6,1.4,13.4,1.4,20,0.1l15.8-3.2
		c-3.3,0.4-20.3,2.5-34.2-9.1s-19-32-12.4-51.1c7.4,10.5,16.8,19.4,27.5,26.4c10.2,6.6,21.6,11.3,33.4,13.9
		c9.3-7.9,14.8-19.3,15.3-31.5c3.8,1.2,7.1,3.5,9.5,6.6c4.4,5.8,4.8,14.1,1.4,21.5c2.2-2.6,5.1-4.4,8.3-5.3
		c1.2-0.3,6.9-1.7,11.2,1.7c1,0.7,1.8,1.6,2.4,2.7l5.9,2l-6,2.1l5.1,1c-3.2,0.4-6.1,1.6-8.7,3.5c-2.7,2.1-4.7,5-5.9,8.2
		c-4.4,10.9-21.5,23-26,25.7C268.1,174,233,155,229.4,153L176.1,151.5z"/>
	<path id="bird5" class="st1" d="M1152.9,677.7l10.1-14.7l40.8,8.6c6.6,1.4,13.4,1.4,20,0.1l15.8-3.2c-3.2,0.5-20.3,2.5-34.2-9.1
		s-19-32-12.4-51.1c14.6,20.6,36.3,35,61,40.4c9.3-7.9,14.8-19.3,15.3-31.5c3.8,1.2,7.1,3.5,9.5,6.6c4.4,5.8,4.8,14.1,1.4,21.5
		c2.2-2.6,5.1-4.4,8.3-5.3c1.2-0.3,6.9-1.7,11.2,1.7c1,0.7,1.8,1.6,2.4,2.7l5.9,2l-6,2.1l5.1,1c-3.1,0.4-6.1,1.6-8.7,3.5
		c-2.7,2.1-4.7,5-5.9,8.2c-4.4,10.8-21.5,23-26,25.7c-21.8,13.3-56.9-5.7-60.5-7.7L1152.9,677.7z"/>
	<path id="bird6" class="st1" d="M1357.8,855.3l-144.3,39.6c9.3-7.3,18.7-14.5,28-21.8l78.5-17.9c21.9-5,42.4-14.9,60-28.9
		c7.7-6.1,15.7-11.7,24-16.9c51.7-32,106.4-39.6,121.6-34.8c4.3,1.5,8.8,2,13.3,1.5c5.7-0.8,11.2-3.1,15.7-6.7
		c10.4-7.5,29.6-14,43.7-9.5c3.9,1.2,10.9,4.5,17.5,14.5l19.4,7.5l-21.1,3l15.8,4.8c-4.7-0.1-9.4,1-13.6,3.1
		c-3.1,1.6-5.9,3.7-8.3,6.2c-8,8-9.1,13.8-14.8,21.6c-3.9,5.3-8.7,9.8-14.2,13.5c-2.9,8.8-5,17.7-6.5,26.8
		c-1.9,11.7-4.6,29.9-0.4,52.3c3.1,16,9,31.2,17.6,45c-5.3-4.1-27.1-9.9-32.9-18c-14.8-20.5-0.7-55.8-2.3-64.7
		c1,13.5-15.7,38.9,6,81.7c10.5,20.7,27.3,36.2,35.9,46.6c-20.5,2.2-41.3,1.5-61.7-2.1c-20.4-3.7-101-18.1-110.9-65.9
		c-6.9-33.3,24.1-65.1,32.5-73.2c-8.7,3.6-17.8,6.1-27.2,7.4C1396.1,874.4,1369.4,861.8,1357.8,855.3z"/>
	<path id="bird7" class="st1" d="M311.1,318.1L91.7,394.2l41.2-36.6l139.6-41.7c22.4-6.7,42.8-18.7,59.5-35
		c14.3-14,29.6-26.9,45.9-38.5c76.8-54.9,160.7-72.3,184.7-66.3c6.8,1.9,13.9,2.2,20.8,1c12.6-2.3,20.8-9.6,23.6-11.9
		c15.4-12.7,44.3-24.8,66.7-19.2c6.1,1.5,17.3,5.8,28.6,20.6l30.8,9.5l-32.4,6.8l25,5.8c-7.3,0.4-14.4,2.5-20.8,6.2
		c-3.6,2.1-7.3,5-12.1,10.5c-11.6,13.2-12.7,22.3-20.7,34.9c-5.5,8.6-12.5,16.1-20.5,22.3c-3.5,13.9-6,28-7.2,42.2
		c-1.7,18.3-4.1,46.8,4.8,81.1c6.4,24.4,17.2,47.4,31.9,67.8c-8.7-5.8-42.9-12.5-52.8-24.5c-25-30.3-6.8-86.3-10.2-99.9
		c3,20.9-20.3,61.8,17.7,125.9c18.4,31,46,53.3,60.4,68.4c-31.6,5.5-63.8,6.6-95.7,3.1c-32-3.6-158.2-17.6-178.4-90.7
		c-14-50.8,30.7-103.3,42.8-116.7c-13.1,6.5-27,11.3-41.3,14.2C372.3,343.8,329.7,327,311.1,318.1z"/>
	<path id="bird8" class="st1" d="M1501,180.1l-45.1,15.7l8.5-7.5l28.7-8.6c4.6-1.4,8.8-3.8,12.2-7.2c2.9-2.9,6.1-5.5,9.4-7.9
		c15.8-11.3,33.1-14.9,38-13.6c1.4,0.4,2.8,0.5,4.3,0.2c1.8-0.4,3.5-1.2,4.9-2.5c3.2-2.6,9.1-5.1,13.7-3.9c2.4,0.7,4.5,2.2,5.9,4.2
		l6.3,2l-6.7,1.4l5.1,1.2c-1.5,0.1-3,0.5-4.3,1.3c-0.9,0.6-1.8,1.3-2.5,2.2c-2.4,2.7-2.6,4.6-4.3,7.2c-1.1,1.8-2.6,3.3-4.2,4.6
		c-0.7,2.9-1.2,5.8-1.5,8.7c-0.7,5.6-0.3,11.2,1,16.7c1.3,5,3.5,9.7,6.6,13.9c-1.8-1.2-8.8-2.6-10.8-5c-5.1-6.2-1.4-17.7-2.1-20.5
		c0.6,4.3-4.2,12.7,3.6,25.9c3.8,6.4,9.4,11,12.4,14.1c-6.5,1.1-13.1,1.4-19.7,0.6c-6.6-0.7-32.6-3.6-36.7-18.6
		c-2.9-10.5,6.3-21.2,8.8-24c-2.7,1.3-5.6,2.3-8.5,2.9C1516.3,184.8,1508.2,183.6,1501,180.1z"/>
</g>
</svg>
