<?xml version="1.0" encoding="utf-8"?>
<!-- Generator: Adobe Illustrator 22.1.0, SVG Export Plug-In . SVG Version: 6.00 Build 0)  -->
<svg version="1.1" id="bulb_1_" xmlns="http://www.w3.org/2000/svg" xmlns:xlink="http://www.w3.org/1999/xlink" x="0px" y="0px"
	 viewBox="0 0 694.1 1077.9" style="enable-background:new 0 0 694.1 1077.9;" xml:space="preserve">
<style type="text/css">
	.st0{stroke:#000000;stroke-miterlimit:10;}
	.st1{fill:none;stroke:#FFFFFF;stroke-width:8;stroke-miterlimit:10;}

	#bulb_1_:hover #bulbHead{
	fill:orange;
	}
	
</style>
<title>Artboard 1</title>
<g id="bulb_leg">
	<path class="st0" d="M136.7,606.9h421c11.6,0,21,9.4,21,21v70.7c0,11.6-9.4,21-21,21h-421c-11.6,0-21-9.4-21-21v-70.7
		C115.7,616.3,125.1,606.9,136.7,606.9z"/>
	<path class="st0" d="M140.3,733.9h413.8c13.6,0,24.6,11,24.6,24.6v63.5c0,13.6-11,24.6-24.6,24.6H140.3c-13.6,0-24.6-11-24.6-24.6
		v-63.5C115.7,745,126.7,733.9,140.3,733.9z"/>
	<path class="st0" d="M140.2,861h414c13.5,0,24.5,11,24.5,24.5v63.8c0,13.5-11,24.5-24.5,24.5h-414c-13.5,0-24.5-11-24.5-24.5v-63.8
		C115.7,872,126.7,861,140.2,861z"/>
	<path class="st0" d="M469,991.6c-36,66.7-119.3,91.6-186,55.6c-24.8-13.4-44.9-34-57.5-59.2L469,991.6z"/>
</g>
<g id="bulbHead">
	<path class="st0" d="M116.3,589.7C93.3,566.3,10.8,476.3,12.9,348.1C15.6,186.8,151.4,13.8,347.2,13.8
		c195.4,0,333.3,172.3,334.3,334.3c0.8,129.4-86,219.1-108.8,241.3L116.3,589.7z"/>
</g>
<path id="stroke" class="st1" d="M275.6,562.2c-44.7-110.5-57.9-166.9-67.8-217.9c-10.9-56.2-5.3-121.6,13.1-126.9
	c34-9.6,40.7,36.7,42.2,68.9c1.4,28.5-0.6,58.1-11.5,58.4C241,345,238,320.2,237.6,287c-0.4-30.9,20.2-69.9,41.4-69.2
	c27.5,0.9,44.4,38.4,45,67.8c0.5,28.3-2,60.5-9.5,60.5c-7.3,0-13.6-27.1-13.6-60.5c0-31.8,19.3-70.2,42.2-69.2
	c31.4,1.4,39.2,40.2,41.7,66.3c2.1,22.2,0.5,60-11.4,59c-9.6-0.9-19.2-23.9-19-57.8c0.2-30.2,18.1-68.5,43.6-67.5
	c28.3,1.1,45.2,37.9,45.4,64.4c0.1,23.3-3.7,62.2-14.6,62.2c-11.5,0-18.2-27.9-18.2-60.1c0-28,7-66.4,48.3-65
	c33.9,1.2,43.2,48.2,32.5,116.7c-7.4,47-22.8,125.8-53.6,227.4"/>
</svg>
