<?xml version="1.0" encoding="utf-8"?>
<!-- Generator: Adobe Illustrator 22.1.0, SVG Export Plug-In . SVG Version: 6.00 Build 0)  -->
<svg version="1.1" id="Crosses" xmlns="http://www.w3.org/2000/svg" xmlns:xlink="http://www.w3.org/1999/xlink" x="0px" y="0px"
	 viewBox="0 0 1599.2 966.1" style="enable-background:new 0 0 1599.2 966.1;" xml:space="preserve">
<style type="text/css">
	.st0{stroke:#000000;stroke-miterlimit:10;}
	.st1{fill:#FFFFFF;}

	
#Crosses:hover #white_cross{

animation: beat .25s infinite alternate;
transform-origin: center;
}

@keyframes beat{
	to{transform: scale(1.2);}
}
</style>
<title>crosses</title>
<g id="black_cross">
	<rect x="125.5" y="314.2" class="st0" width="138.5" height="353.5"/>
	<rect x="18" y="421.7" class="st0" width="353.5" height="138.5"/>
	<rect x="527.8" y="314.2" class="st0" width="138.5" height="353.5"/>
	<rect x="420.3" y="421.7" class="st0" width="353.5" height="138.5"/>
	<rect x="930.2" y="314.2" class="st0" width="138.5" height="353.5"/>
	<rect x="822.7" y="421.7" class="st0" width="353.5" height="138.5"/>
	<rect x="1332.5" y="314.2" class="st0" width="138.5" height="353.5"/>
	<rect x="1225" y="421.7" class="st0" width="353.5" height="138.5"/>
	<rect x="326.7" y="595.8" class="st0" width="138.5" height="353.5"/>
	<rect x="219.2" y="703.3" class="st0" width="353.5" height="138.5"/>
	<rect x="729" y="595.8" class="st0" width="138.5" height="353.5"/>
	<rect x="621.5" y="703.3" class="st0" width="353.5" height="138.5"/>
	<rect x="1131.3" y="595.8" class="st0" width="138.5" height="353.5"/>
	<rect x="1023.8" y="703.3" class="st0" width="353.5" height="138.5"/>
	<rect x="326.7" y="23.1" class="st0" width="138.5" height="353.5"/>
	<rect x="219.2" y="130.6" class="st0" width="353.5" height="138.5"/>
	<rect x="729" y="23.1" class="st0" width="138.5" height="353.5"/>
	<rect x="621.5" y="130.6" class="st0" width="353.5" height="138.5"/>
	<rect x="1131.3" y="23.1" class="st0" width="138.5" height="353.5"/>
	<rect x="1023.8" y="130.6" class="st0" width="353.5" height="138.5"/>
</g>
<g id="white_cross">
	<rect x="148" y="334.9" class="st1" width="93.6" height="308"/>
	<rect x="41" y="444.2" class="st1" width="308.1" height="93.6"/>
	<rect x="550.3" y="334.9" class="st1" width="93.6" height="308"/>
	<rect x="443.3" y="444.2" class="st1" width="308.1" height="93.6"/>
	<rect x="952.6" y="334.9" class="st1" width="93.6" height="308"/>
	<rect x="845.6" y="444.2" class="st1" width="308.1" height="93.6"/>
	<rect x="1354.9" y="334.9" class="st1" width="93.6" height="308"/>
	<rect x="1247.9" y="444.2" class="st1" width="308" height="93.6"/>
	<rect x="349.1" y="616.5" class="st1" width="93.6" height="308"/>
	<rect x="242.2" y="725.8" class="st1" width="308.1" height="93.6"/>
	<rect x="751.5" y="616.5" class="st1" width="93.6" height="308"/>
	<rect x="644.5" y="725.8" class="st1" width="308.1" height="93.6"/>
	<rect x="1153.8" y="616.5" class="st1" width="93.6" height="308"/>
	<rect x="1046.8" y="725.8" class="st1" width="308.1" height="93.6"/>
	<rect x="349.1" y="43.8" class="st1" width="93.6" height="308"/>
	<rect x="242.2" y="153.1" class="st1" width="308.1" height="93.6"/>
	<rect x="751.5" y="43.8" class="st1" width="93.6" height="308"/>
	<rect x="644.5" y="153.1" class="st1" width="308.1" height="93.6"/>
	<rect x="1153.8" y="43.8" class="st1" width="93.6" height="308"/>
	<rect x="1046.8" y="153.1" class="st1" width="308.1" height="93.6"/>
</g>
</svg>
