<?xml version="1.0" encoding="utf-8"?>
<!-- Generator: Adobe Illustrator 22.1.0, SVG Export Plug-In . SVG Version: 6.00 Build 0)  -->
<svg version="1.1" id="fire" xmlns="http://www.w3.org/2000/svg" xmlns:xlink="http://www.w3.org/1999/xlink" x="0px" y="0px"
	 viewBox="0 0 1418 1073.6" style="enable-background:new 0 0 1418 1073.6;" xml:space="preserve">
<style type="text/css">
	.st0{stroke:#000000;stroke-width:2;stroke-miterlimit:10;}
	.st1{stroke:#000000;stroke-miterlimit:10;}
    #fire:hover #back_fire{
	fill: #f7b821;
	}

	#fire:hover #middle_fire{
	fill: #901010;
	}

	#fire:hover #front_fire{
	fill: #fb870b;
	}
	
	
</style>
<title>Artboard 1</title>
<g id="back_fire">
	<path class="st0" d="M116.9,1075.6c-43.6-218.1-29.5-386.8-10-497.1c24.6-138.7,72.5-243.6,71.4-240c-13.3,43.8-11.1,79.6,7.1,91.4
		c3,1.9,7.7,4.1,17.1,4.3c35.6,0.8,75.3-27.4,95.7-62.9c33.7-58.6,8.7-126.7,11.4-127.1c3.6-0.6,51.5,115.7,31.4,260
		c-16.5,118.6-71.6,203-104.3,245.7l81.4,27.1c7.3-9.5,26.2-36.7,27.1-75.7c0.4-20.3-4-40.3-12.9-58.6
		c11.1,20.2,20.7,41.2,28.6,62.9c55,150.8,16,295.3-11.4,370H116.9z"/>
</g>
<g id="middle_fire">
	<path class="st0" d="M88.3,1075.6c-33.8-80.8-99-267.8-62.9-504.3c28.7-187.9,108.4-322.7,157.1-392.9
		c-22.7,43.3-40.8,88.7-54.3,135.7c-20.7,72.7-16,100.8-12.9,114.3c3.2,13.7,18,76.2,62.9,84.3c33.3,6,66.8-21.1,81.4-50
		c23.3-46-4-91.5-5.7-94.3c48.8,67.4,50.2,112,42.9,140c-10.7,40.5-40.3,48.9-48.6,94.3c-6.9,37.9,3.6,88.1,35.7,114.3
		c55.2,44.9,154.8,2.8,207.1-41.4c52.9-44.7,82.7-112.6,81.4-177.1c-1.3-69.2-37.7-96-54.3-150c-19.7-64-11.6-166.2,121.4-330
		c-86.8,114-90.8,185.4-77.1,230c3.9,12.8,4.7,8.5,31.4,67.1c37.5,82.3,56.3,123.5,61.4,157.1c10.5,68.7-13.4,90.6,7.1,121.4
		c23.8,35.8,78.2,50.4,121.4,40c73.1-17.6,97.3-102.7,101.4-117.1c17.6-61.9-7.4-92-7.1-155.7c0.2-48.6,15.2-119.6,88.6-207.1
		c-14.1,30.7-33.5,83.5-32.9,150c0.1,9.8,3.6,186.5,88.6,208.6c56.8,14.8,123.3-46.7,152.9-100c56.4-101.6,0.1-211.9-5.7-222.9
		c52.3,64.5,141.6,192.3,181.4,377.1c51.2,237.2-8.9,429.7-38.6,508.6L88.3,1075.6z"/>
</g>
<g id="front_fire">
	<path class="st1" d="M124,811.3c-16.3,13.6-43.2,40-58.6,81.4c-33.4,89.7,15.7,171.4,22.9,182.9h1224.3
		c35.1-72.6,81.2-191.6,90-344.3c13.2-227-63.2-400-104.3-478.6c17.4,43.7,20.1,80.4,20,102.9c-0.2,35-7.4,53.8-11.4,62.9
		c-7.3,16.2-16.5,36.8-37.2,44.3c-24.7,9-53.4-5.2-68.6-22.9c-21.4-24.8-22.9-64.6-2.8-98.6c-12.6,10.7-30.3,29.1-37.2,55.7
		c-16.4,63.6,45.4,110.1,22.9,164.3c-7.8,18.8-25.1,36.9-44.3,38.6c-30.7,2.7-62.5-37.1-72.8-74.3c-15.7-56.5,24.1-86.7,32.8-155.7
		c4.8-38.2,0.8-93.7-41.4-165.7c9,37,10,75.5,2.9,112.9c-12.4,64.1-51,70.8-71.4,135.7c-21,67.1-5.8,130.3,1.4,160
		c18.7,77.2,47.5,82.4,48.6,131.4c1.5,71.2-57.1,162-125.7,162.9c-74.3,1-137.8-103.5-130-180c5-48.9,35.3-49.4,60-132.9
		c11.7-39.6,27.8-93.8,7.1-148.6c-14.3-38-33.2-41.8-41.4-74.3c-11.8-46.8,13.8-93.6,37.2-125.7c-51.5,40.5-65.4,77-68.6,102.9
		c-5.4,44.5,19.9,65.5,10,117.1c-1.2,6.3-14.9,73.6-51.4,77.1c-27.6,2.7-55-31.1-64.3-60C653.8,424,704.3,371,706.9,368.4
		c-15.6,16.3-54.3,61.2-65.7,131.4c-5.8,35.3,0.9,66.5,12.9,127.1c17.7,89.4,30,92.7,37.1,151.4c6.8,55.1,13.9,113.8-21.4,162.9
		c-5.9,8.2-39.5,54.8-97.1,57.1c-53.5,2.2-88.7-35.3-94.3-41.4c-48.6-53.4-25.8-134.5-18.6-161.4c12.9-47.7,30.6-56.2,45.7-94.3
		c16.6-42,24.9-107.2-15.7-207.1c7.3,29.1,7.3,59.5,0,88.6c-4,15.8-11.9,32.6-61.4,95.7c-58.4,74.5-72.3,81.9-75.7,110
		c-3.8,31.1,11.9,34,14.3,85.7c1.5,31.5,3,63.6-15.7,92.9c-28.9,45.1-85.7,51.7-95.7,52.9c-9.6,1.1-84.5,8.5-128.6-48.6
		C92.7,927.1,91.2,862.7,124,811.3z"/>
</g>
</svg>
