<?xml version="1.0" encoding="utf-8"?>
<!-- Generator: Adobe Illustrator 22.1.0, SVG Export Plug-In . SVG Version: 6.00 Build 0)  -->
<svg version="1.1" id="logo" xmlns="http://www.w3.org/2000/svg" xmlns:xlink="http://www.w3.org/1999/xlink" x="0px" y="0px"
	 viewBox="0 0 938 203" style="enable-background:new 0 0 938 203;" xml:space="preserve">
<style type="text/css">
	.st0{fill:#FFFFFF;stroke:#000000;stroke-width:3;stroke-miterlimit:10;}
	.st1{stroke:#FFFFFF;stroke-width:3;stroke-miterlimit:10;}

	#logo:hover {
	 filter:invert(100%)
	}
</style>
<title>Artboard 1</title>
<path class="st0" d="M61.3,65.4h42.5c7.1,0,12.5,1.8,16.3,5.3c3.7,3.3,5.8,8,5.7,13c0.1,4.1-1.4,8.1-4.1,11.2
	c-2.2,2.3-4.9,4-7.9,4.9c5.3,1.3,9.2,3.5,11.7,6.6c2.6,3.3,3.9,7.5,3.7,11.7c0.1,3.6-0.9,7.2-2.7,10.3c-1.7,3-4.2,5.5-7.3,7.2
	c-2.7,1.3-5.6,2.1-8.6,2.4c-3.4,0.5-6.8,0.8-10.2,1H61.3V65.4z M84.2,94.2h9.9c3.5,0,6-0.6,7.4-1.8c1.4-1.4,2.2-3.3,2.1-5.3
	c0.1-1.9-0.7-3.7-2.1-5c-1.4-1.2-3.8-1.8-7.2-1.8h-10L84.2,94.2z M84.2,123.1h11.6c3.9,0,6.7-0.7,8.3-2.1c1.6-1.4,2.5-3.5,2.4-5.6
	c0.1-2-0.8-4-2.4-5.2c-1.6-1.3-4.4-2-8.3-2H84.2V123.1z"/>
<path class="st0" d="M141.1,65.4h22.7v55.4h35.4v18.1h-58.2V65.4z"/>
<path class="st0" d="M257.5,126.8h-25.8l-3.6,12.1H205l27.6-73.5h24.8l27.6,73.5h-23.8L257.5,126.8z M252.8,110.9l-8.1-26.4l-8,26.4
	H252.8z"/>
<path class="st0" d="M336.6,108.8l19.9,6c-1.1,5.1-3.3,9.8-6.3,14c-2.8,3.7-6.5,6.6-10.7,8.5c-4.3,1.9-9.7,2.9-16.3,2.9
	c-8,0-14.5-1.2-19.6-3.5c-5.1-2.3-9.4-6.4-13.1-12.2c-3.7-5.8-5.5-13.3-5.5-22.4c0-12.2,3.2-21.5,9.7-28s15.6-9.8,27.5-9.8
	c9.3,0,16.5,1.9,21.8,5.6c5.3,3.7,9.2,9.5,11.8,17.2l-20.1,4.5c-0.5-1.7-1.2-3.4-2.2-4.9c-1.2-1.7-2.8-3.1-4.7-4
	c-6.4-3.1-14-1-18,4.8c-2.1,3.1-3.1,7.9-3.1,14.5c0,8.1,1.2,13.7,3.7,16.8s6,4.5,10.4,4.5c4.3,0,7.6-1.2,9.9-3.7
	C334,117,335.6,113.5,336.6,108.8z"/>
<path class="st0" d="M367.6,65.4h22.7v27.8l23.8-27.8h30.2l-26.8,27.7l28,45.8h-28L402,108.7L390.3,121v17.9h-22.7V65.4z"/>
<path class="st1" d="M509.1,65.4h21.6l7.8,41.2l11.4-41.2h21.5l11.4,41.1l7.8-41.1H612l-16.2,73.5h-22.3l-12.9-46.3l-12.8,46.3
	h-22.3L509.1,65.4z"/>
<path class="st1" d="M619.5,65.4h22.7v25.7H667V65.4h22.8v73.5H667v-29.7h-24.8v29.7h-22.7V65.4z"/>
<path class="st1" d="M705.8,65.4h22.8v73.5h-22.8V65.4z"/>
<path class="st1" d="M739.8,65.4h69v18.2h-23.1v55.4h-22.7V83.5h-23.2V65.4z"/>
<path class="st1" d="M819,65.4h60.9v15.7h-38.1v11.7h35.3v15h-35.3v14.5H881v16.6h-62V65.4z"/>
<path class="st1" d="M499.1,111.1l13.3,3c-0.5,2-1.2,4-2,5.9c-0.8,1.8-1.7,3.5-2.7,5.2l6.4,4.4c0.8,0.5,1.8,1.1,3,1.8l-9.1,10.5
	c-1.7-0.9-3.4-1.9-5.2-3.1s-3.4-2.2-4.8-3c-2.7,1.8-5.7,3.3-8.9,4.3c-4.6,1.3-9.3,1.9-14,1.8c-8.2,0-14.2-1.7-18.2-5.1
	c-3.8-3-6-7.5-6-12.4c0-3.6,1.3-7.1,3.5-9.9c2.3-3.1,6.2-5.7,11.5-7.9c-1.9-2.1-3.4-4.5-4.6-7c-0.8-1.9-1.2-4-1.2-6.1
	c-0.1-4.2,1.8-8.1,5-10.7c3.3-2.8,8.4-4.2,15.1-4.2c6.9,0,11.9,1.3,15.2,4c3,2.3,4.8,5.8,4.8,9.6c0,2.1-0.5,4.1-1.5,6
	c-0.9,1.8-2.1,3.4-3.6,4.7c-2.4,1.9-4.9,3.7-7.5,5.3c2.9,2.9,6,5.7,9.3,8.3C497.8,114.8,498.6,113,499.1,111.1z M473.5,115.2
	c-1.8,1.1-3.4,2.6-4.7,4.2c-0.7,1.1-1.1,2.4-1.1,3.7c0,2.1,1,4.1,2.6,5.4c1.9,1.6,4.3,2.5,6.9,2.4c3,0,6.5-1.2,10.2-3.6
	C483.8,124.7,479.2,120.6,473.5,115.2L473.5,115.2z M479.5,100.4c1.9-1,3.7-2.3,5.1-3.9c1.1-1.1,1.7-2.5,1.8-4
	c0-1.3-0.5-2.5-1.4-3.3c-2.5-1.9-5.9-1.8-8.4,0.2c-1,0.9-1.6,2.2-1.6,3.5C475,94.6,476.5,97.1,479.5,100.4L479.5,100.4z"/>
</svg>
