<?xml version="1.0" encoding="utf-8"?>
<!-- Generator: Adobe Illustrator 22.1.0, SVG Export Plug-In . SVG Version: 6.00 Build 0)  -->
<svg version="1.1" id="man" xmlns="http://www.w3.org/2000/svg" xmlns:xlink="http://www.w3.org/1999/xlink" x="0px" y="0px"
	 viewBox="0 0 1720.5 1200" style="enable-background:new 0 0 1720.5 1200;" xml:space="preserve">
<style type="text/css">
	.st0{stroke:#000000;stroke-miterlimit:10;}
	
	.st2{display:inline;stroke:#000000;stroke-miterlimit:10;}

	#face_details{
	opacity:0;
	}

	#man:hover #face_details{
	opacity:1;
	}

</style>
<title>Artboard 1</title>
<g id="background">
	<path class="st0" d="M868.1,54.3c-5.2,13.3,4.1,16.7,5.7,44.3c1.1,19-2.1,23.7-1.5,51.9c0.1,6.1,0.6,12.1,1.5,18.1
		c1.2,8.7,5.5,41,9.5,55.6c7.8,28.3,7.8,52.4-1.3,62.8c-7.6,8.8-20.6-1.2-28.3,9.1c-4.7,6.2-6.7,7.1-6.1,12.2
		c1.9,18.4,1.7,6.8,1.9,10.1c0.2,3,2.6,13.2,2.6,13.5c-1.1,15.5,19.4,27.1,19.4,27.1c18,21.6,22.9,15,34.6,30.4s14.7,15.8,18.2,25.3
		c6.7,18,1.4,13.2,8,35.1c7.8,25.9,13.3,23.6,19.7,49.2c6.5,25.9,8.9,50.8,6.5,54.5c-5.3,8.4-29.1,11-39.6,10.3
		c-11-0.8-12.8-7.7-23.3-6.5c-5.3,0.6-12.7,6.9-19.6,12.1c-6.8,5.1-13.4,5-19.6,21.9c-2,5.4-5,10.2-3.7,19.1
		c0.9,7.1,4,13.8,8.8,19.1c-4.5,8-9,17.1-13.5,25.2c-7.7,0.3-16.5,0.1-24.2,0.5c1.4,3.5,5.2,9.6,6.7,13.1c0.3,7.7,0.8,11.2,1.2,18.9
		c-4.2,5.9-12.2,12.6-16.4,18.6c-2.4,5.6-2.4,18.9-4.9,24.5c-0.3,14.7-0.4,34.5-0.7,49.2c10.1,19.6,23.7,29.4,33.8,49
		c6.8,30.1,5.2,23.8,7.1,40.1c2.4,20.6-0.1,23.7-2.2,36.8l-26.2,29.4c-20.9,7-43.3,8.5-65,4.2l-180.4-28.3l-96.5,96.4
		c4.9,21.7,9.8,43.3,14.7,65c-2.8,15.4-5.6,30.8-8.4,46.1c-8.4,15.4-16.8,30.7-25.2,46.1c4.2,11.9,8.4,23.8,12.6,35.7h1246.4V0
		H947.1l-19.2,23.5c-11.1-0.5-22.1,1.6-32.2,6.3C888.9,33,873.8,40,868.1,54.3z"/>
</g>
<g id="face_details" class="st1">
	<path class="st2" d="M748.4,221.2l62.6,12.6l29.8-6.5l26.9-1c2.7,8.5,5.4,16.9,8.1,25.3c0.5,1.7,1.1,15.4,1.6,17l-11,6.7l-11,6.7
		l-45-8.2l-60.8-26.1l-48.8,32.7C716.6,260.8,732.5,241,748.4,221.2z"/>
	<path class="st2" d="M930.2,0l-9.8,15.4c-25.9-2.7-50.5,12.2-60.1,36.3c0.8,5.4,1.5,10.9,2.3,16.3L850,63.3l-24.2,1.4
		c-27.4-3-51.5-5.3-71.3-7c0,0-52.5-4.5-105.6-7l0,0h-0.7c0.5,7.5,0.9,14.9,1.4,22.4c-27.6-11.4-58.9-9.9-85.3,4.2l18.2,28l2.8,30.7
		c2.8,17.7,5.6,35.4,8.4,53.1l-60.1,72.7l-57.3,68.5c1.1,39.4-8,78.4-26.5,113.2l-5.8,2.6l-6.9-2.5l-10.7-16.5l-8.2-42.2
		c-6.3-19.6-12.6-39.2-18.9-58.7l-49.6-4.9l-49.6-4.9L269,340.5l-31.1,24.1c4.2,18.4,8.4,36.8,12.6,55.2
		c4.2,18.4,8.4,36.8,12.6,55.2l10.8,31l10.8,31l2.1,22.4l2.1,22.5l-28.7,18l-87.4,26.8l-133.8-5.4L0,605.8V0H930.2z"/>
	<path class="st2" d="M891.5,550.3c-18.3-15.3-44.2-17.5-64.8-5.6l-7.9,15.8l8.4,7.9l14.9-7.5l18.6,4.2c3.4-3.9,6.8-7.8,10.2-11.7
		L891.5,550.3z"/>
	<polygon class="st2" points="786.2,508.9 768,532.2 768,565.2 799.2,582 775.5,575.5 759.6,568.5 759.6,537.1 764.7,522.8 	"/>
	<path class="st2" d="M725.1,308.4c0.2,0.6,8.1-2.5,20.1-5.2c6.8-1.5,13.7-2.6,20.6-3.3l42.4,7l2.7,2.3c-1.5,5.5-3.5,10.9-5.9,16.1
		c-0.5,0.9-0.9,1.9-1.3,2.9c0.9-1.2,1.7-2.4,2.4-3.7c1.7-2.9,5.1-9.7,11-27.5l-3.2,1.3l-52.3-4.6c-4.4,1.2-10.8,3.3-18.5,6.3
		C734,303.4,724.9,307.7,725.1,308.4z"/>
	<path class="st2" d="M785.9,343.5l-6.7-8.9l0.6-16.5l9.2-17.6l8.4-3.6l9.5,3.6c0.4,7.4-0.8,14.7-3.6,21.5
		C799.6,330.7,793.6,338.1,785.9,343.5z"/>
	<polygon class="st2" points="330.2,343.7 309.9,343.7 276.3,363.9 268,383.5 279.8,444.3 279.8,389.1 299.1,367.4 	"/>
	<polygon class="st2" points="370,360.4 386.8,387 398,447.8 374.2,459.7 377.7,484.2 398,491.9 393.1,508.9 379.8,508.9 364.4,496 
		337.9,525.4 314.1,514.9 338.6,514.9 353.2,489.1 368.6,488.4 364.4,449.9 382.6,449.2 389.6,435.9 379.1,382.8 	"/>
	<polygon class="st2" points="295.2,531.7 307.8,552.8 314.1,614.2 340.6,626.8 381.9,620.5 395.2,582 398,540.1 398,600 
		386.1,631.7 356,635.9 324.6,631.7 305,617.7 306.4,592.5 299.1,552.8 	"/>
	<polygon class="st2" points="779.4,656.8 765.8,657.5 692.3,661 674.4,700.9 701.4,674.7 	"/>
	<polygon class="st2" points="386.1,678.8 369.3,782.7 398,841.4 528.7,889.6 369.3,835.1 356,801.5 	"/>
	<polygon class="st2" points="314.1,856 299.1,971.4 330.2,1090.9 442.4,1200 370.7,1109.8 330.2,1028 314.1,931.5 	"/>
	<polygon class="st2" points="708,621.2 667.1,626.8 654.5,666.3 654.5,614.9 	"/>
	<polygon class="st2" points="679.9,96.9 708,149.3 654.5,236.4 687,166.6 693.3,139.9 	"/>
	<polygon class="st2" points="799,363.6 771.9,374.4 726.5,434.9 771.9,390.9 799,374.4 	"/>
	<polygon class="st2" points="806.9,704.6 804.1,716.7 802.5,729.3 796.2,716.9 774.8,716.9 790.8,707.9 	"/>
	<polygon class="st2" points="177.1,700.9 135.1,900.8 135.1,1107.7 156.1,1200 156.1,1040.6 165.9,856 	"/>
	<polygon class="st2" points="398,1049 423.1,995.9 461.6,995.9 429.8,1022.4 	"/>
</g>
</svg>
