<?xml version="1.0" encoding="utf-8"?>
<!-- Generator: Adobe Illustrator 22.1.0, SVG Export Plug-In . SVG Version: 6.00 Build 0)  -->
<svg version="1.1" id="Rainbow" xmlns="http://www.w3.org/2000/svg" xmlns:xlink="http://www.w3.org/1999/xlink" x="0px" y="0px"
	 viewBox="0 0 1620 826" style="enable-background:new 0 0 1620 826;" xml:space="preserve">
<style type="text/css">
	.st0{stroke:#000000;stroke-miterlimit:10;}
	.st1{fill:#F23E20;stroke:#000000;stroke-miterlimit:10;}
	.st2{fill:#EFD93A;stroke:#000000;stroke-miterlimit:10;}
	.st3{fill:#1CD1D1;stroke:#000000;stroke-miterlimit:10;}



	#bottom2, #mid2, #top2{
    opacity:0;
    transition: opacity 0.5s ease-in-out;

	}
	#Rainbow:hover #bottom2{
	transition-delay: 0.1s;
	opacity:1;
	}
	#Rainbow:hover #mid2{
	transition-delay: 0.5s;
	opacity:1;
	}
	#Rainbow:hover #top2{
	transition-delay: 1s;
	opacity:1;
	}
</style>
<title>Artboard 1</title>
<path id="bottom" class="st0" d="M391.7,815.6c0-228.8,188.3-417.1,417.1-417.1S1226,586.7,1226,815.6h80.7
	c0-273.1-224.7-497.9-497.8-497.9S311,542.5,311,815.6H391.7z"/>
<path id="mid" class="st0" d="M278.8,815.6c0-290.8,239.3-530,530-530s530,239.3,530,530h102.6c0-347-285.6-632.6-632.6-632.6
	S176.2,468.5,176.2,815.6H278.8z"/>
<path id="top" class="st0" d="M145.8,815.6c0-367.2,299.3-669.4,663.1-669.4s663.1,302.2,663.1,669.4h128.3
	c0-438.3-357.2-799-791.4-799S17.5,377.3,17.5,815.6H145.8z"/>
<path id="bottom2" class="st1" d="M391.7,815.6c0-228.8,188.3-417.1,417.1-417.1S1226,586.7,1226,815.6h80.7
	c0-273.1-224.7-497.9-497.8-497.9S311,542.5,311,815.6H391.7z"/>
<path id="mid2" class="st2" d="M278.8,815.6c0-290.8,239.3-530,530-530s530,239.3,530,530h102.6c0-347-285.6-632.6-632.6-632.6
	S176.2,468.5,176.2,815.6H278.8z"/>
<path id="top2" class="st3" d="M145.8,815.6c0-367.2,299.3-669.4,663.1-669.4s663.1,302.2,663.1,669.4h128.3
	c0-438.3-357.2-799-791.4-799S17.5,377.3,17.5,815.6H145.8z"/>
</svg>
