<?xml version="1.0" encoding="utf-8"?>
<!-- Generator: Adobe Illustrator 22.1.0, SVG Export Plug-In . SVG Version: 6.00 Build 0)  -->
<svg version="1.1" id="spills" xmlns="http://www.w3.org/2000/svg" xmlns:xlink="http://www.w3.org/1999/xlink" x="0px" y="0px"
	 viewBox="0 0 1774.1 1113.6" style="enable-background:new 0 0 1774.1 1113.6;" xml:space="preserve">
<style type="text/css">
	.st0{stroke:#000000;stroke-miterlimit:10;}
	.st1{fill:#b30808;stroke:#000000;stroke-miterlimit:10;}
    
    #whiteSpills{
    opacity:0;
    }
	#spills:hover #whiteSpills{
    opacity:1;
    transition: opacity 3s ease-in-out;

	}
</style>
<title>spills</title>
<g id="background">
	<rect class="st0" width="1774.1" height="1113.6"/>
</g>
<g id="whiteSpills">
	<path class="st1" d="M679.5,700.4c-13.2,9.9-30.2,7.7-37.7-2.1c-6.2-8-6.3-21.4,0-27.3c7.4-6.9,17.8,2,29.4-4.2
		c12.6-6.7,19.6-27.6,12.6-37.8c-6.3-9.1-22.5-7.5-33.5-6.3c-45.5,5-111.5,37.9-117.4,86c-2,16.3,3.5,29.2-6.3,46.1
		c-5.3,9.1-17.4,23.7-29.4,21c-11.5-2.6-16.8-19.9-16.8-31.5c0-14.4,10.9-17.8,31.5-44c18-23,15.9-27.5,32.8-46.1
		c10.2-11.2,17.5-19.2,29.4-26.6c24.6-15.2,35.9-7,61.5-22.4c10.3-6.2,28.5-17,28-32.2c-0.3-9.8-8.3-18.7-16.8-22.4
		c-2.8-1.2-11.8-4.6-33.5,4.2c-28.8,11.7-30.6,24.9-46.1,26.6c-20.7,2.2-47.1-18.1-46.1-36.3c1-17.8,27.8-32,48.9-33.5
		c19.3-1.4,26.8,8.3,48.9,4.2c4.9-0.9,25.6-4.7,28-15.4c2.2-9.9-13.9-14.8-23.8-36.4c-6.5-14.1-10-34.7-1.4-41.9
		c5.9-5,14.4-0.9,25.2,0c21.1,1.8,48.3-8,61.5-28c2.4-3.7,12.9-17.1,8.4-26.6c-3.8-7.8-13.9-5-23.8-14c-8.3-7.6-15.9-23.1-9.8-36.4
		c5.9-12.7,23.9-22.1,39.2-14c13.5,7.2,18.9,24.9,11.2,39.1c1.7,3.7,4.6,8.5,9.8,11.2c7.7,4,17.3,1.8,35-7
		c34.2-17.1,49.7-34.7,58.7-29.4c4.6,2.7,13,16.8,9.8,12.6c17-15,24.4-16,28-14c5.9,3.4,1.8,15.2,11.2,23.8c2.8,2.5,6.5,4,14,7
		c7.2,2.9,13,5.1,18.2,5.6c18.4,1.6,27.4-20.1,37.8-16.8c9.1,2.9,5,20.7,15.4,28c13.3,9.3,39.1-6.1,47.5-11.2
		c36.2-21.7,30.7-40,78.3-95.1c9.4-10.9,22-24.5,21-41.9c-0.5-8.8-4.2-13.2-2.8-23.8c1.7-13.2,10.1-27.2,16.8-26.6
		c6,0.6,9.9,13.2,11.2,21c1.8,10.9,0.7,26.9-18.9,57.3c-15.8,24.6-20.4,22.5-40.9,51.4s-24.3,42.9-25.2,54.5
		c-0.6,7.7-2.1,26.6,8.4,33.6c12.2,8.1,37.1-2.5,48.2-18.9c8.6-12.6,3.7-20.8,14.7-35.6c4-5.5,13.6-18.3,25.2-16.8
		c11,1.5,19.2,15.4,18.9,27.3c-0.3,12.7-10.2,21.3-14.7,25.2c-15,13-25.1,6.9-39.8,18.9c-10.1,8.2-20.4,23.2-16.8,34.6
		c3.1,9.6,13.3,7.7,21,18.9c9.8,14.1,5.8,35.1-1,48.2c-6.8,12.9-22.4,30.1-36.7,27.3s-14.1-22.8-27.3-25.2
		c-14.9-2.6-32.8,20-39.8,38.8c-1.2,3.1-13.4,36.9,4.2,59.8c15.7,20.5,36.9,8.2,59.8,30.4c17.8,17.3,26.4,45.5,17.8,62.9
		c-1.2,2.3-5.2,10.6-13.6,12.6c-7.6,1.8-16.8-2.1-19.9-8.4s1.7-11.3-2.1-16.8c-2.8-4.1-8.5-5.5-12.6-5.2
		c-9.6,0.7-15.7,11.4-17.8,17.8c-4.6,13.9,1.9,30.3,12.6,38.8s18.6,3.6,34.6,7.3c17.5,4.1,34.3,21.3,67.1,55.6
		c22.1,23.1,27.4,31.5,40.9,33.6s23.3-3.9,31.4,3.1c6,5.2,8.8,15.3,5.2,24.1c-4,9.9-15,15.4-23.1,13.6c-7.6-1.6-8.8-8.8-19.9-21
		c-7.2-7.9-11.6-10.3-21-17.8c-27.8-22.2-25.3-29.8-41.9-40.9c-29.1-19.5-64.5-14.9-66.1-14.7c-24.7,3.5-31.5,15.7-48.2,10.5
		c-11.5-3.6-24.1-14.4-26.2-27.3c-1.7-10.8,4.9-17.3,1-22c-4.7-5.7-19.3-2.5-29.4,2.1c-24.5,11.1-24.6,31.2-38.8,32.5
		c-15.7,1.5-19.9-22.5-41.9-25.2c-15.1-1.8-33,7-38.8,19.9c-5.3,11.9,3.5,18.7-1,35.7c-3.2,11.7-12.2,26.3-22,26.2
		c-11-0.1-22.4-18.8-22-35.7c0.4-18.7,15.1-22.3,26.2-47.2c10.8-24.4,13.2-57.9,1-65c-9.7-5.7-30.6,4.6-34.6,17.8
		c-2.7,8.9,4.2,13.2,2.1,23.1c-3.8,17.7-31.1,28.8-35.7,24.1c-2.7-2.8,4.5-9.2,4.2-23.1c-0.2-7.1-2.3-20.3-8.4-22
		c-12.5-3.6-34.6,43.1-41.9,39.8c-4.1-1.8,1.4-17.2-6.3-23.1C689.1,698.5,683.4,699.3,679.5,700.4z"/>
	<path class="st1" d="M388,801.1c-9-9-20.3-13.4-29.4-11.2c-3.3,0.9-6.5,2.3-9.4,4.3c-2.4,1.7-9.6,7.1-8.8,9.7
		S350.5,807.7,388,801.1z"/>
	<path class="st1" d="M357.2,859.8c-16,0.3-28.4,8.8-30.8,19.6s5.5,23.9,11.2,23.8c4.7-0.1,5.5-9.1,11.2-9.8
		c6.2-0.8,8.7,9.4,19.6,15.4c10.3,5.6,23.6,5.1,25.2,1.4c2.4-5.8-24.9-18.5-22.4-26.6c2.4-7.6,28.6-3.7,29.4-8.4
		c0.6-3.7-15.2-9.7-26.6-12.6C368.5,861.2,362.9,860.3,357.2,859.8z"/>
	<path class="st1" d="M294,917.1c-31.3,37.6-55.5,45.5-72.7,44.7c-10-0.5-24-4.2-36.3,4.2c-8.1,5.5-15.5,16.2-12.6,23.8
		c3.4,8.9,20.3,11.5,32.2,8.4s10.8-9.8,26.6-15.4c9.1-3.2,15.4-3.1,18.2-8.4c2.6-5-0.5-9.9,2.8-12.6s8.3,0.8,11.2-2.1
		c2.4-2.4,0-6,2.5-9.1c2.3-2.9,6.6-2.5,8.7-2.8C279.7,947.2,286.7,941.2,294,917.1z"/>
	<path class="st1" d="M216,926.9c-3-2.8-6.9-5.5-10.5-4.5c-4.5,1.2-5.6,7.4-8,7s-4.9-7.4-2.5-10.5c1.8-2.3,4.8-0.9,6.3-3.1
		c2-3-2.3-7.1-0.4-9.8c1.3-1.8,4.7-2.3,6.6-1c3.4,2.3,1.3,9.6,3.1,10.1s4.1-6.8,7.3-6.6c1.7,0.1,2.4,2.2,4.5,5.6
		c5.5,8.6,11,10.2,10.1,12.9c-0.7,2.2-5.1,3.7-8,2.5c-4.3-1.9-4.2-9.1-5.9-9.1C218,920.3,217.1,921.7,216,926.9z"/>
	<path class="st1" d="M63.6,1019c-3.9-1-5.1-13.9-2.5-25.9c2.6-11.7,8.8-22.4,11.5-21.7s-1.6,11.9,5.2,21c3.6,4.7,10.2,8.8,15.4,7.3
		c4.1-1.2,3.9-4.8,8.7-8.4c7.9-5.8,19.7-4.4,20.3-2.1c0.7,2.6-12.8,5.5-12.9,11.9c-0.1,3.5,3.8,4.3,10.8,14.3
		c3.5,5,4.5,7.6,3.8,10.1c-0.6,2.2-2.1,4-4.2,4.9c-5.2,2.3-10.9-3.2-12.2-1.8s2.8,8.2,7.7,13.3c3.7,3.8,7.9,8.1,14.7,11.2
		c2.8,1.3,4.6,1.7,4.9,3.1c0.6,3-5.2,8.7-10.1,7.3c-2.5-0.7-4.3-2.7-4.9-5.2c-0.3-1.7,0.2-2.7,0.3-3.8c1.1-6.7-9.7-14.3-17.5-17.1
		c-2.7-1-4.4-1.2-5.6-0.3c-2,1.3-0.9,4.2-2.4,7.3c-2,4.3-7.5,6.4-11.5,6.6c-6.5,0.4-13-3.6-12.6-5.6c0.5-2.6,12.1,0.8,17.1-5.2
		c5.4-6.6,0.6-21.3-4.2-22c-4-0.6-8,8.4-10.5,7.3c-2.1-0.9-0.2-7.5-2.8-8.7C68.2,1015.9,65.9,1019.6,63.6,1019z"/>
	<path class="st1" d="M1270.8,206.2c-14.6,6.5-21.9,9.8-28,13.3c-11.9,6.9-34.5,22.6-54.5,57.3c8.8-14.6,18.1-20.1,25.2-22.4
		c8.6-2.8,16-1.4,21.7-7.7c5-5.6,2.9-10.8,7.7-14c5.4-3.7,11.3,0.7,21.7,2.1c12.3,1.7,26.7-1.5,36.3-9.1c12.4-9.8,19-28.5,14-33.6
		C1311,188.4,1297.6,194.3,1270.8,206.2z"/>
	<path class="st1" d="M1316.6,268.5c9.8-10,20.8-18.7,32.9-25.9c5.3-3.1,11.8-6.4,16.8-14c5.4-8.1,4.1-13.7,6.3-19.6
		c6.8-17.9,34.9-8.9,60.1-26.6c16.5-11.6,13-21.4,47.5-57.3c5.9-6.1,12.9-13,18.9-11.2c8.5,2.6,9.5,21.1,9.8,26.6
		c0.2,2.9,1.5,29-9.1,32.9c-9.6,3.5-22.1-13.5-27.3-9.8c-3.5,2.5,2.2,10.4-2.1,21c-0.5,1.3-4.2,10.1-12.6,13.3
		c-7.8,2.9-13.8-1.2-15.4,1.4c-1.9,3,3.5,13,10.5,14c11,1.6,18.2-20.2,27.3-18.2c5.2,1.2,8.5,9.6,7.7,16.1
		c-1.5,11.6-16.9,19.5-28.7,18.2c-9.2-1.1-10.5-7.1-24.5-14c-6.5-3.2-17.8-8.8-28.7-7.7c-17.6,1.8-21.9,20.1-42.6,37.8
		C1354,253.4,1339.3,262.9,1316.6,268.5z"/>
	<path class="st1" d="M1595.2,76.4c-1,0.5-15.3,8.4-16.1,23.1c-0.9,16.9,17,28.9,19.6,27.3c2-1.3-5-10.7-0.7-17.5
		c3.2-5,11.8-7,14.7-4.2c3.1,2.9-2.4,8.8,0,16.8c2.4,7.8,11.7,15,17.5,12.6c4.8-2,7.1-10.3,4.9-16.1c-2.1-5.5-8-7.8-7.7-8.4
		c0.7-1.4,26.3,16.4,36.3,9.1c5.7-4.1,5.1-15.3,2.1-22.4c-3.9-9.2-14.1-16.4-18.9-14c-4.5,2.2-2.2,11.9-4.9,12.6
		c-4,1-16.3-17.9-11.2-25.2c7.4-10.5,46.8,9.3,51,1.4c2.2-4.3-7.4-13.2-9.1-14.7c-7.3-6.7-21-14-30.1-9.1c-6.1,3.3-4.6,9.1-9.8,11.2
		c-10.7,4.2-26.9-16.5-30.1-14c-2.9,2.4,11.7,20.1,6.3,28C1606.8,76.5,1600.8,76.9,1595.2,76.4z"/>
	<path class="st1" d="M1663.7,301.2c-2.2,0.3-17.9,2.3-18.9,9.1c-1,6.5,11.6,15.2,17.5,12.6c5.2-2.4,1.9-12,8.4-16.8
		c7.4-5.5,20.1,1.2,20.3,0.7S1678.9,299.2,1663.7,301.2z"/>
	<path class="st1" d="M1300,51.7c-39,8.7-47.6,15.5-47.5,20.3c0,3.1,3.7,7,7,7c5.4,0.1,6.7-10.4,13.3-11.2c5.1-0.6,7.6,5.3,13.3,4.2
		c2.7-0.5,4.4-2.2,6.3-4.2C1296.5,63.4,1299.2,57.8,1300,51.7z"/>
	<path class="st1" d="M490.7,290.5c-7.3-5.9-10.4-19.8-4.2-26.2c4.3-4.4,12.3-4.7,17.8-2.1c9.6,4.5,10.9,17.2,12.6,16.8
		c2-0.5,2.2-19.1-6.3-38.8c-5.4-12.5-17.3-32.4-25.2-30.4c-10.3,2.6-6.6,41.1-13.6,41.9c-6.5,0.8-9.2-33-25.2-36.7
		c-15.7-3.7-36.6,23.7-33.5,28.3c2,3,12.8-5.3,23.1,0c6.2,3.2,10.9,10.7,10.5,17.8c-0.7,12.4-16.5,19-18.9,19.9
		c-15,6-23.5-2.3-32.5,4.2c-9.6,6.9-11,24.3-6.3,27.3c5.3,3.4,14.8-13.6,33.5-13.6c2.6,0,15.2,0.3,21,8.4c8,11.1-5.9,24.2-3.1,41.9
		c4.3,27.4,46,49.9,59.8,40.9c7.6-5,9.2-21.4,3.1-31.5c-7.8-12.8-24.8-9.8-28.3-21c-2.4-7.5,2.5-18.1,9.4-21
		c9.9-4.1,19.3,9.4,27.3,5.2c6.9-3.6,9-18.8,3.1-25.2S499,297.2,490.7,290.5z"/>
	<path class="st1" d="M170.2,150.7c9.7,12,2.4,22.2,9.4,34.6c10.9,19.3,43.5,21.5,45.1,17.8c1.5-3.5-24.6-13.3-23.1-25.2
		c1.1-8.3,14.6-8.1,18.9-18.9c6-15.1-11.3-38.4-17.8-36.7c-6.2,1.6-1.4,25.4-8.4,27.3c-5.4,1.5-16.6-10.7-17.8-24.1
		c-1.1-12.4,7-17.1,4.2-24.1c-4.2-10.5-28.7-16.8-45.1-6.3s-20.7,35.6-13.6,41.9c4.9,4.4,12.3-2.7,27.3,1
		C151.5,138.7,162.8,141.6,170.2,150.7z"/>
	<path class="st1" d="M1409.2,951c9.8-8.1,11.1-27.5,4.2-32.5s-19.2,7-25.2,2.1c-5.5-4.5-2-20,5.2-30.4c13-18.7,40.8-24.7,46.1-17.8
		c4.2,5.4-8,15.5-3.2,28.3c2.6,6.7,9.5,13.2,16.8,13.6c9.7,0.5,13.6-10.1,21-8.4c6.1,1.4,11.5,10.7,9.4,16.8
		c-3.5,10.3-26.3,6.2-29.4,15.7c-2.1,6.4,5.7,16.4,14.7,21c15.5,7.9,27.1-3.8,49.3-4.2c28-0.6,59.6,17.1,60.8,34.6
		c0.8,11.9-12.6,21.6-33.6,36.7c-12,8.7-35.5,25.6-44,18.9s7.5-29.8-4.2-44c-4.9-6-12.2-7.5-26.2-10.5c-22.1-4.7-33.5-0.4-36.7-6.3
		c-4-7.5,11.1-20.1,8.4-23.1s-23,4.7-28.3,19.9c-3.9,11.4,3.2,19.3-1,23.1c-6.1,5.4-30.9-2.7-34.6-19.9c-2.2-9.9,3.1-20.8,10.5-26.2
		C1397.2,952.6,1402.6,956.5,1409.2,951z"/>
	<path class="st1" d="M1514.1,785.4c-2.8,2.6-0.3,11.3,5.2,15.7c8.3,6.7,21.2,2,22-2.1C1542.5,793,1519,780.7,1514.1,785.4z"/>
	<path class="st1" d="M294,395.5c-9-9-20.3-13.4-29.4-11.2c-3.3,0.9-6.5,2.3-9.4,4.3c-2.4,1.7-9.6,7.1-8.8,9.7
		S256.5,402.1,294,395.5z"/>
	<path class="st1" d="M527.8,68.1c-2.2,0.3-17.9,2.3-18.9,9.1c-0.9,6.4,11.6,15.2,17.5,12.6c5.2-2.3,1.9-12,8.4-16.8
		c7.4-5.4,20.1,1.2,20.3,0.7S543,66.1,527.8,68.1z"/>
	<path class="st1" d="M1082.3,971.8c-2.2,0.3-17.9,2.3-18.9,9.1c-0.9,6.5,11.6,15.2,17.5,12.6c5.2-2.3,1.9-12,8.4-16.8
		c7.4-5.5,20.1,1.2,20.3,0.7S1097.6,969.8,1082.3,971.8z"/>
</g>
</svg>
